<svg width="1365" height="960" viewBox="0 0 1365 960" fill="none" xmlns="http://www.w3.org/2000/svg">
<path d="M623.732 156.176C595.925 256.334 510.451 330.33 394.622 368.952C278.797 407.574 132.675 410.8 -16.2833 369.445C-165.241 328.09 -288.787 249.996 -368.125 157.192C-447.464 64.3852 -482.559 -43.0843 -454.752 -143.242C-426.946 -243.4 -341.471 -317.396 -225.643 -356.018C-109.818 -394.64 36.305 -397.866 185.263 -356.511C334.221 -315.156 457.767 -237.062 537.104 -144.258C616.444 -51.4509 651.539 56.0185 623.732 156.176Z" stroke="rgba(0,0,0,0.04)"/>
<path d="M771.559 197.217C736.121 324.865 627.19 419.154 479.609 468.365C332.031 517.575 145.858 521.683 -43.9212 468.995C-233.7 416.306 -391.11 316.81 -492.197 198.564C-593.287 80.3149 -638.019 -56.6356 -602.58 -184.283C-567.141 -311.931 -458.211 -406.22 -310.63 -455.431C-163.052 -504.64 23.1213 -508.749 212.901 -456.06C402.68 -403.372 560.089 -303.876 661.177 -185.63C762.266 -67.3809 806.998 69.5697 771.559 197.217Z" stroke="rgba(0,0,0,0.04)"/>
<path d="M960.963 249.801C915.746 412.67 776.763 532.961 588.498 595.738C400.237 658.513 162.749 663.751 -79.3322 596.543C-321.414 529.334 -522.211 402.415 -651.165 251.571C-780.122 100.725 -837.201 -73.998 -791.984 -236.867C-746.767 -399.736 -607.784 -520.027 -419.519 -582.803C-231.258 -645.579 6.22975 -650.817 248.311 -583.608C490.393 -516.399 691.19 -389.481 820.145 -238.637C949.102 -87.7908 1006.18 86.9323 960.963 249.801Z" stroke="rgba(0,0,0,0.04)"/>
<path d="M478.984 115.99C458.651 189.231 396.143 243.356 311.406 271.611C226.672 299.865 119.766 302.227 10.7786 271.969C-98.2082 241.712 -188.596 184.575 -246.637 116.682C-304.68 48.7873 -330.339 -29.8153 -310.005 -103.056C-289.671 -176.296 -227.163 -230.421 -142.426 -258.677C-57.693 -286.931 49.2139 -289.293 158.201 -259.035C267.188 -228.777 357.576 -171.64 415.616 -103.748C473.659 -35.853 499.318 42.7496 478.984 115.99Z" stroke="rgba(0,0,0,0.04)"/>
<path d="M1157.75 276.933C1100.82 482.004 925.79 633.438 688.718 712.452C451.649 791.465 152.592 798.034 -152.25 713.401C-457.093 628.768 -709.961 468.969 -872.367 279.05C-1034.78 89.1294 -1106.69 -130.863 -1049.75 -335.933C-992.819 -541.004 -817.79 -692.438 -580.717 -771.452C-343.649 -850.465 -44.5924 -857.034 260.251 -772.401C565.094 -687.768 817.961 -527.969 980.367 -338.05C1142.78 -148.129 1214.69 71.8628 1157.75 276.933Z" stroke="rgba(0,0,0,0.04)"/>
<path d="M1157.75 276.933C1100.82 482.004 925.79 633.438 688.718 712.452C451.649 791.465 152.592 798.034 -152.25 713.401C-457.093 628.768 -709.961 468.969 -872.367 279.05C-1034.78 89.1294 -1106.69 -130.863 -1049.75 -335.933C-992.819 -541.004 -817.79 -692.438 -580.717 -771.452C-343.649 -850.465 -44.5924 -857.034 260.251 -772.401C565.094 -687.768 817.961 -527.969 980.367 -338.05C1142.78 -148.129 1214.69 71.8628 1157.75 276.933Z" stroke="rgba(0,0,0,0.04)"/>
</svg>
